<svg xmlns="http://www.w3.org/2000/svg" viewBox="0 0 512 512" role="img" aria-label="Zoth Studio hermetic seal">
  <title>Zoth Studio — Hermetic Seal</title>
  <rect width="512" height="512" rx="256" fill="#050510"/>
  <g fill="none" stroke="#e8e6f2" stroke-linecap="round" stroke-linejoin="round">
    <circle cx="256" cy="256" r="228" stroke-width="3.2"/>
    <circle cx="256" cy="256" r="202" stroke-width="2.2"/>
    <g stroke-width="2">
      <path d="M256 30 V50 M256 462 V482 M30 256 H50 M462 256 H482"/>
    </g>
    <path stroke-width="2.1" d="M256 76 L406 342 H106 Z"/>
    <path stroke-width="2.1" d="M256 436 L106 170 H406 Z"/>
    <path stroke-width="1.8" d="M256 148 L276 182 H236 Z"/>
    <path stroke-width="2.3" d="M200 198 H256 L234 222 H312"/>
    <path stroke-width="1.7" d="M170 236 C188 220 224 220 236 236 C224 252 188 252 170 236 Z"/>
    <path stroke-width="1.7" d="M276 236 C288 220 324 220 342 236 C324 252 288 252 276 236 Z"/>
    <circle cx="204" cy="236" r="6" stroke-width="1.5"/>
    <circle cx="308" cy="236" r="6" stroke-width="1.5"/>
    <path stroke-width="2" d="M256 188 V266"/>
    <path stroke-width="1.4" d="M256 266 C248 274 240 278 230 276"/>
    <path stroke-width="1.4" d="M256 266 C264 274 272 278 282 276"/>
    <path stroke-width="1.7" d="M216 312 C234 304 278 304 296 312"/>
    <path stroke-width="1.3" d="M238 354 Q256 368 274 354"/>
  </g>
</svg>
